{"title":"Despicable Me 2 2013 720p TS + END SCENE XViD - JUSTiCE","uid":8684630,"size":2721002862,"categoryP":"video","categoryS":"hd___movies","magnet":"?xt=urn:btih:dd61a0d0c9489e2793ae2f114bc14d3e513c67c4&amp;dn=Despicable+Me+2+2013+720p+TS+%2B+END+SCENE+XViD+-+JUSTiCE&amp;tr=udp%3A%2F%2Ftracker.openbittorrent.com%3A80&amp;tr=udp%3A%2F%2Fopen.demonii.com%3A1337&amp;tr=udp%3A%2F%2Ftracker.coppersurfer.tk%3A6969&amp;tr=udp%3A%2F%2Fexodus.desync.com%3A6969","seeders":3,"leechers":1,"uploader":"xxxlavalxxx","files":-1,"time":1373766882,"description":"\n &lt;a href=&quot;\nhttp://www.imdb.com/title/tt1690953/&quot; rel=&quot;nofollow&quot; target=&quot;_NEW&quot;&gt;\nhttp://www.imdb.com/title/tt1690953/&lt;/a&gt;\n\n\n\n\nGru is recruited by the Anti-Villain League to help deal with a powerful new super criminal. \n\n\n\nDirectors:\n Pierre Coffin, Chris Renaud \n\nWriters:\n Ken Daurio (screenplay), Cinco Paul (screenplay) \n\nStars:\n Steve Carell, Kristen Wiig, Benjamin Bratt\n\nGenres:\n  Animation |  Comedy |  Crime |  Family \n\nCountry:\n USA \n\nLanguage:\n English \n\n\n\nDespicable Me 2 2013 720p TS + END SCENE XViD - JUSTiCE\n &lt;a href=&quot;\nhttp://www.imdb.com/title/tt1690953/&quot; rel=&quot;nofollow&quot; target=&quot;_NEW&quot;&gt;\nhttp://www.imdb.com/title/tt1690953/&lt;/a&gt;\n\n SOURCE : VIDEO - 1080p Troublemaker / AUDIO - An Old FRiEND/TROUBLEMAKER\n\n\n Video and audio both cleaned and given justice.\n Check sample and see.....\n\n\n Right video ...Pure and simple CLASS cam!!\n Had some faults like ANY cam would do but this is one of THE best cams ever done,so take a bow\n cammer....whoever you are.\n Video did have a little border at the bottom and also a slight bit of glare and if anything maybe\n too much colour.\n Oh this video also has the end scene,when the credits are rolling.... :)\n\n Audio ....some very nice line audio,with some hiss and noise to it,but MUCH better than the cam audio we all used.\n\n\n First off dropped the 1080 into vdub ...used null for cropping,then resized it to a 720p and used modd16.\n Then from there i changed th contrast and brightness levels and used intes to lower the glares and\n for once actually lowered the colouring.\n No smoother used just added a bit more sharpness.\n Almost looks like a dvdrip now ....its that good. ( down to the sors being that good ).\n\n Audio...just dropped in adobe and changed all the EQ bands to my liking and then used a hiss reduction filter with a custom\n template i made to remove the hiss without killing the audio :)\n Now runtime was different and the audio started to lag ...by the end it was 6 secs oos ...so had to shrink \n it,twice in the end,to get it in sync.\n Once done ...just muxed to our rip.\n\n Overall V9 ...A9 ...M8 ( based on 10 being best cam / best line audio )...IMHO of course.\n\n\n Video\n ID                               : 0\n Format                           : MPEG-4 Visual\n Format profile                   : Advanced Simple@L5\n Format settings, BVOP            : 2\n Format settings, QPel            : No\n Format settings, GMC             : No warppoints\n Format settings, Matrix          : Default (MPEG)\n Muxing mode                      : Packed bitstream\n Codec ID                         : XVID\n Codec ID/Hint                    : XviD\n Duration                         : 1h 33mn\n Bit rate                         : 3 588 Kbps\n Width                            : 1 280 pixels\n Height                           : 704 pixels\n Display aspect ratio             : 16:9\n Frame rate                       : 20.000 fps\n Color space                      : YUV\n Chroma subsampling               : 4:2:0\n Bit depth                        : 8 bits\n Scan type                        : Progressive\n Compression mode                 : Lossy\n Bits/(Pixel*Frame)               : 0.199\n Stream size                      : 2.35 GiB (94%)\n Writing library                  : XviD 64\n\n Audio\n ID                               : 1\n Format                           : MPEG Audio\n Format version                   : Version 1\n Format profile                   : Layer 3\n Codec ID                         : 55\n Codec ID/Hint                    : MP3\n Duration                         : 1h 33mn\n Bit rate mode                    : Constant\n Bit rate                         : 224 Kbps\n Channel(s)                       : 2 channels\n Sampling rate                    : 48.0 KHz\n Compression mode                 : Lossy\n Delay relative to video          : 100ms\n Stream size                      : 150 MiB (6%)\n Alignment                        : Split accross interleaves\n Interleave, duration             : 50 ms (1.00 video frame)\n Interleave, preload duration     : 500 ms\n\n\n\nscreens\n\n\n    &lt;a href=&quot;\thttp://addpix.net/viewer.php?file=75720018914446520206.jpg&quot; rel=&quot;nofollow&quot; target=&quot;_NEW&quot;&gt;\thttp://addpix.net/viewer.php?file=75720018914446520206.jpg&lt;/a&gt;\n    &lt;a href=&quot;\thttp://addpix.net/viewer.php?file=10286725815369678150.jpg&quot; rel=&quot;nofollow&quot; target=&quot;_NEW&quot;&gt;\thttp://addpix.net/viewer.php?file=10286725815369678150.jpg&lt;/a&gt;\n    &lt;a href=&quot;\thttp://addpix.net/viewer.php?file=68782772145287339659.jpg&quot; rel=&quot;nofollow&quot; target=&quot;_NEW&quot;&gt;\thttp://addpix.net/viewer.php?file=68782772145287339659.jpg&lt;/a&gt;\n    &lt;a href=&quot;\thttp://addpix.net/viewer.php?file=48217816455357490024.jpg&quot; rel=&quot;nofollow&quot; target=&quot;_NEW&quot;&gt;\thttp://addpix.net/viewer.php?file=48217816455357490024.jpg&lt;/a&gt;\n\n\n\n\n","torrent":{"xt":"urn:btih:dd61a0d0c9489e2793ae2f114bc14d3e513c67c4","amp;dn":"Despicable+Me+2+2013+720p+TS+%2B+END+SCENE+XViD+-+JUSTiCE","amp;tr":["udp%3A%2F%2Ftracker.openbittorrent.com%3A80","udp%3A%2F%2Fopen.demonii.com%3A1337","udp%3A%2F%2Ftracker.coppersurfer.tk%3A6969","udp%3A%2F%2Fexodus.desync.com%3A6969"],"infoHash":"dd61a0d0c9489e2793ae2f114bc14d3e513c67c4","infoHashBuffer":{"type":"Buffer","data":[221,97,160,208,201,72,158,39,147,174,47,17,75,193,77,62,81,60,103,196]},"announce":[],"urlList":[]}}